<?xml version="1.0" encoding="UTF-8"?>
<svg width="133px" height="20px" viewBox="0 0 133 20" version="1.1" xmlns="http://www.w3.org/2000/svg" xmlns:xlink="http://www.w3.org/1999/xlink">
    <!-- Generator: Sketch 53.2 (72643) - https://sketchapp.com -->
    <title>logo</title>
    <desc>Created with Sketch.</desc>
    <g id="01cabecerapieynavegacion" stroke="none" stroke-width="1" fill="none" fill-rule="evenodd">
        <g id="01cabecera_01comercial_03capas_01productos_01maximos" transform="translate(-662.000000, -605.000000)" fill="#000000">
            <g id="capa" transform="translate(0.000000, 132.000000)">
                <g id="cierre" transform="translate(0.000000, 445.000000)">
                    <g id="items-secundarios" transform="translate(396.000000, 1.000000)">
                        <g id="item" transform="translate(252.000000, 17.000000)">
                            <g id="logo">
                                <path d="M80.290525,11.5724667 L80.290525,10.9604667 L88.80186,10.9604667 L88.80186,11.5724667 L87.488485,11.5724667 L87.488485,27.0291333 L88.80186,27.0291333 L88.80186,27.6384667 L84.04046,27.6384667 L84.04046,27.0291333 L85.35184,27.0291333 L85.35184,11.5724667 L82.19043,11.5724667 L82.19043,28.1784667 L71.962065,12.4191333 L71.962065,27.0291333 L73.274775,27.0291333 L73.274775,27.6384667 L64.84324,27.6384667 L64.84324,27.0291333 L66.76775,27.0291333 L65.196355,22.3691333 L59.8451,22.3691333 L58.203215,27.0291333 L59.493315,27.0291333 L59.493315,27.6384667 L51.90766,27.6384667 L51.90766,27.0291333 L53.222365,27.0291333 L53.222365,12.8898 L48.131125,27.8271333 L42.75726,13.3364667 L42.75726,27.0291333 L44.0713,27.0291333 L44.0713,27.6384667 L39.42561,27.6384667 C38.206,27.6384667 35.976255,26.7231333 35.976255,23.3351333 L35.976255,21.8984667 C35.976255,19.9698 34.96878,19.1704667 32.997055,19.1704667 L31.635135,19.1704667 L31.635135,27.0291333 L33.654075,27.0291333 L33.654075,27.6384667 L22.564535,27.6384667 L22.564535,27.0291333 L24.48838,27.0291333 L22.91632,22.3691333 L17.566395,22.3691333 L15.92318,27.0291333 L17.21328,27.0291333 L17.21328,27.6384667 L14,27.6384667 L14,27.0291333 L15.24222,27.0291333 L21.157395,10.2311333 L26.857775,27.0291333 L29.47721,27.0291333 L29.47721,11.5724667 L28.13923,11.5724667 L28.13923,10.9604667 L33.30229,10.9604667 C36.727705,10.9604667 38.48796,12.7724667 38.48796,15.1238 C38.48796,16.7938 37.360785,18.3711333 35.7189,18.8644667 C37.59686,19.3818 38.206,20.9564667 38.206,22.8164667 L38.206,25.2618 C38.206,26.3684667 38.83908,27.0031333 39.56659,27.0291333 L42.17073,27.0291333 L42.17073,11.5724667 L40.85669,11.5724667 L40.85669,10.9604667 L44.259495,10.9604667 L48.834695,23.6391333 L53.199755,10.9604667 L56.67172,10.9604667 L56.67172,11.5724667 L55.35768,11.5724667 L55.35768,27.0291333 L57.522255,27.0291333 L63.4361,10.2311333 L69.13781,27.0291333 L71.374205,27.0291333 L71.374205,11.5724667 L70.061495,11.5724667 L70.061495,10.9604667 L73.72099,10.9604667 L81.60523,23.0984667 L81.60523,11.5724667 L80.290525,11.5724667 Z M17.7772,21.7571333 L22.72879,21.7571333 L20.28824,14.4424667 L17.7772,21.7571333 Z M32.997055,18.5584667 C35.06188,18.5584667 36.094625,16.5351333 36.094625,15.2184667 C36.094625,12.8418 34.756645,11.5724667 32.76231,11.5724667 L31.635135,11.5724667 L31.635135,18.5584667 L32.997055,18.5584667 Z M60.057235,21.7571333 L65.00816,21.7571333 L62.568275,14.4424667 L60.057235,21.7571333 Z M143.709713,18.1317333 C143.252858,18.1317333 142.803318,18.1577333 142.361758,18.2104 C142.067828,18.2457333 141.783873,18.3210667 141.517208,18.4310667 C141.048383,18.6270667 140.723863,19.0897333 140.723863,19.6277333 C140.723863,20.1144 141.030428,20.5257333 141.457358,20.6857333 C141.822443,20.8237333 142.226763,20.8997333 142.643053,20.8997333 C143.004148,20.8997333 143.360588,20.8764 143.709713,20.8317333 L143.709713,18.1317333 Z M146.854498,21.6224 C145.523168,22.0050667 144.114698,22.2110667 142.660343,22.2110667 C142.135658,22.2110667 141.613633,22.1824 141.104243,22.1304 C140.402668,22.0617333 139.733013,21.8830667 139.114563,21.6164 C138.349148,21.2884 137.814488,20.5290667 137.814488,19.6410667 C137.814488,18.7957333 138.295948,18.0630667 139.010823,17.7137333 C139.292118,17.5750667 139.588708,17.4590667 139.893943,17.3697333 C140.507073,17.1910667 141.146138,17.0750667 141.803158,17.0330667 C142.435573,16.9904 143.067988,16.9697333 143.709713,16.9697333 L143.709713,16.2577333 C143.709713,15.8877333 143.448368,15.5797333 143.100573,15.5090667 C142.764083,15.4397333 142.416288,15.4037333 142.059183,15.4037333 C141.097593,15.4037333 140.162603,15.5324 139.276823,15.7717333 L138.766103,14.3404 C140.056203,14.0284 141.401498,13.8644 142.787358,13.8644 C143.484943,13.8644 144.159253,13.9537333 144.808293,14.1224 C145.801803,14.3830667 146.568548,15.2004 146.771373,16.2197333 C146.827898,16.5057333 146.854498,16.7990667 146.854498,17.1017333 L146.854498,21.6224 Z M112.11962,14.0093333 C112.11962,13.3366667 111.648135,12.7766667 111.01572,12.6486667 C110.74307,12.596 110.45978,12.5633333 110.17117,12.5633333 L108.313825,12.5633333 L108.315155,16.13 C108.885725,16.13 109.44632,16.0766667 109.989625,15.978 C110.488375,15.8866667 110.95055,15.6953333 111.360855,15.4246667 C111.818375,15.122 112.11962,14.6013333 112.11962,14.0093333 Z M115.45127,13.9726667 C115.45127,15.2813333 114.66125,16.408 113.532745,16.8946667 C113.40307,16.9513333 113.2714,17.0033333 113.136405,17.0526667 L115.926745,21.972 L112.11962,21.972 L109.811405,17.6293333 C109.316645,17.662 108.816565,17.678 108.313825,17.678 L108.313825,21.972 L104.98284,21.972 L104.98284,11.0006667 L110.431185,11.0006667 C110.95454,11.0006667 111.472575,11.0226667 111.985955,11.0626667 C112.525935,11.1053333 113.05594,11.2126667 113.55735,11.3706667 C114.65593,11.7173333 115.45127,12.754 115.45127,13.9726667 Z M123.711634,18.036 C123.711634,17.4926667 123.667744,16.96 123.587944,16.44 C123.504154,15.904 123.115794,15.4706667 122.598424,15.3306667 C122.368334,15.2686667 122.125609,15.236 121.873574,15.236 C121.622869,15.236 121.381474,15.2686667 121.148059,15.3306667 C120.630689,15.4706667 120.243659,15.904 120.160534,16.44 C120.078739,16.96 120.037509,17.4926667 120.037509,18.036 C120.037509,18.5793333 120.078739,19.1133333 120.160534,19.634 C120.243659,20.168 120.630689,20.6026667 121.148059,20.7426667 C121.381474,20.804 121.622869,20.838 121.873574,20.838 C122.125609,20.838 122.368334,20.804 122.598424,20.7426667 C123.115794,20.6026667 123.504154,20.168 123.587944,19.634 C123.667744,19.1133333 123.711634,18.5793333 123.711634,18.036 Z M126.871714,18.036 C126.871714,18.438 126.831149,18.828 126.758664,19.2093333 C126.505299,20.5373333 125.501149,21.5966667 124.198414,21.9246667 C123.454279,22.1106667 122.674899,22.2113333 121.874904,22.2113333 C121.074909,22.2113333 120.295529,22.1106667 119.551394,21.9246667 C118.248659,21.5966667 117.245839,20.5373333 116.990479,19.2093333 C116.918659,18.828 116.880089,18.438 116.880089,18.036 C116.880089,17.6353333 116.918659,17.2433333 116.990479,16.864 C117.245839,15.5353333 118.248659,14.474 119.551394,14.1473333 C120.295529,13.962 121.074909,13.8626667 121.874904,13.8626667 C122.674899,13.8626667 123.454279,13.962 124.198414,14.1473333 C125.501149,14.474 126.505299,15.5353333 126.758664,16.864 C126.831149,17.2433333 126.871714,17.6353333 126.871714,18.036 Z M104.982574,28.2938667 L104.982574,24.8352 C107.807494,24.1338667 110.764749,23.7605333 113.805794,23.7605333 C116.761719,23.7605333 119.633189,24.1125333 122.389614,24.7765333 C125.092174,25.4272 127.913104,25.7725333 130.813834,25.7725333 C132.030784,25.7725333 133.212489,25.6132 134.366264,25.3118667 C134.430769,25.3118667 134.483969,25.3658667 134.483969,25.4312 C134.483969,25.4705333 134.463354,25.5072 134.433429,25.5292 C132.609999,26.8205333 130.725389,28.0205333 128.774279,29.1292 C126.638964,29.0012 124.558179,28.6818667 122.539904,28.1965333 C119.782814,27.5338667 116.912009,27.1825333 113.954754,27.1825333 C110.859844,27.1825333 107.855374,27.5685333 104.982574,28.2938667 Z M137.132464,24.689 C137.256819,24.4896667 137.478264,24.357 137.730964,24.357 L146.855429,24.357 L146.855429,28.1723333 L134.959244,28.1743333 L137.132464,24.689 Z M128.536807,18.036 C128.536807,17.6673333 128.573382,17.306 128.639217,16.9566667 C128.877287,15.7193333 129.748437,14.7093333 130.908197,14.286 C131.656322,14.014 132.462967,13.8626667 133.306187,13.8626667 C134.378832,13.8626667 135.415567,14.0313333 136.388462,14.3393333 L135.863777,15.806 C135.193457,15.64 134.501192,15.552 133.784322,15.552 C133.407267,15.552 133.047502,15.63 132.720322,15.7673333 C132.281422,15.9526667 131.956902,16.3413333 131.841192,16.8113333 C131.743437,17.204 131.700877,17.614 131.700877,18.036 C131.700877,18.458 131.743437,18.8693333 131.841192,19.2633333 C131.956902,19.7333333 132.281422,20.1206667 132.720322,20.306 C133.047502,20.444 133.407267,20.5213333 133.784322,20.5213333 C134.501192,20.5213333 135.193457,20.4333333 135.863777,20.266 L136.388462,21.7333333 C135.415567,22.044 134.378832,22.2113333 133.306187,22.2113333 C132.462967,22.2113333 131.656322,22.0613333 130.908197,21.788 C129.748437,21.3646667 128.877287,20.354 128.639217,19.118 C128.573382,18.7673333 128.536807,18.4053333 128.536807,18.036 Z"></path>
                            </g>
                        </g>
                    </g>
                </g>
            </g>
        </g>
    </g>
</svg>